<svg id="Ebene_1" width="21" height="20" data-name="Ebene 1" xmlns="http://www.w3.org/2000/svg" viewBox="0 0 21.26 10"><defs><style>.cls-1{fill-rule:evenodd;}</style></defs><path d="M0,4.5A1.5,1.5,0,0,1,1.5,3h13A1.5,1.5,0,0,1,16,4.5V6a.5.5,0,0,1-.5.5,1.5,1.5,0,0,0,0,3,.5.5,0,0,1,.5.5v1.5A1.5,1.5,0,0,1,14.5,13H1.5A1.5,1.5,0,0,1,0,11.5V10a.5.5,0,0,1,.5-.5,1.5,1.5,0,0,0,0-3A.5.5,0,0,1,0,6Zm4-1v1H5v-1Zm1,3v-1H4v1Zm7,0v-1H11v1Zm-1-2h1v-1H11Zm-6,3H4v1H5Zm7,1v-1H11v1Zm-7,1H4v1H5Zm7,1v-1H11v1Zm-8,1v1H5v-1Zm7,1h1v-1H11Z" transform="translate(0 -3)"/><path class="cls-1" d="M18.76,5.33a.5.5,0,0,1,.5.5v1.5h1.5a.5.5,0,0,1,0,1h-1.5v1.5a.5.5,0,0,1-.5.5.5.5,0,0,1-.5-.5V8.33h-1.5a.5.5,0,0,1,0-1h1.5V5.83A.5.5,0,0,1,18.76,5.33Z" transform="translate(0 -3)"/></svg>